<svg width="46" height="24" viewBox="0 0 46 24" fill="none" xmlns="http://www.w3.org/2000/svg"><path d="M9.564 5.656 C -0.240 15.530,0.096 15.182,0.036 15.506 C -0.060 16.027,0.049 16.298,0.610 16.929 C 0.899 17.253,2.597 18.976,4.384 20.757 C 7.184 23.549,7.664 23.997,7.860 24.000 C 8.061 24.002,8.510 23.576,11.577 20.472 C 15.020 16.988,15.069 16.942,15.371 16.943 C 15.671 16.943,15.734 17.002,19.206 20.470 C 22.266 23.527,22.766 23.997,22.964 23.998 C 23.163 24.000,23.630 23.559,26.703 20.472 C 30.172 16.986,30.218 16.943,30.523 16.943 C 30.827 16.943,30.871 16.984,34.333 20.473 C 37.404 23.568,37.863 24.002,38.063 23.999 C 38.259 23.997,38.700 23.588,41.232 21.064 C 45.068 17.240,45.821 16.432,45.890 16.063 C 46.012 15.411,45.970 15.357,42.982 12.343 C 30.357 -0.391,30.753 0.000,30.493 0.000 C 30.271 0.000,29.915 0.336,26.758 3.530 L 23.268 7.060 22.953 7.057 C 22.639 7.053,22.612 7.028,19.239 3.623 C 17.371 1.736,15.771 0.150,15.683 0.099 C 15.596 0.047,15.447 0.004,15.353 0.003 C 15.224 0.001,13.736 1.454,9.564 5.656 M16.106 2.121 C 16.397 2.398,16.589 2.654,16.639 2.830 C 16.943 3.906,18.247 9.421,18.247 9.633 C 18.247 9.985,17.962 10.274,17.618 10.272 C 17.475 10.271,16.617 9.956,15.640 9.545 C 13.928 8.826,13.566 8.606,13.573 8.295 C 13.575 8.223,13.743 6.891,13.948 5.333 L 14.319 2.501 14.743 2.094 C 15.322 1.538,15.499 1.541,16.106 2.121 M31.055 1.974 C 31.335 2.238,31.382 2.343,31.626 3.258 C 31.772 3.807,31.892 4.354,31.892 4.475 C 31.893 4.723,31.373 5.293,29.797 6.770 C 29.005 7.512,28.855 7.621,28.626 7.621 C 28.192 7.621,28.037 7.381,27.641 6.099 C 27.415 5.366,27.304 4.881,27.332 4.752 C 27.360 4.625,27.908 4.021,28.815 3.118 C 30.467 1.475,30.504 1.456,31.055 1.974 M12.687 4.829 C 12.819 4.975,12.817 5.041,12.614 6.611 C 12.498 7.508,12.371 8.302,12.332 8.376 C 12.207 8.612,11.961 8.712,9.832 9.386 C 7.543 10.111,7.437 10.122,7.437 9.640 C 7.437 9.420,7.685 9.146,9.796 7.036 C 12.291 4.540,12.371 4.479,12.687 4.829 M35.899 6.812 C 37.504 8.425,37.567 8.499,37.564 8.787 C 37.559 9.403,37.334 9.502,35.879 9.526 L 34.719 9.545 34.548 9.348 C 34.430 9.211,34.243 8.641,33.940 7.496 C 33.700 6.586,33.503 5.746,33.503 5.630 C 33.503 5.341,33.707 5.137,33.994 5.136 C 34.202 5.136,34.442 5.348,35.899 6.812 M20.834 6.848 L 22.310 8.330 22.307 8.746 C 22.305 8.975,22.259 9.694,22.204 10.344 C 22.108 11.477,22.095 11.533,21.896 11.705 C 21.782 11.803,21.595 11.884,21.482 11.884 C 21.178 11.885,20.083 11.413,19.963 11.229 C 19.837 11.037,18.630 6.147,18.630 5.830 C 18.630 5.685,18.690 5.563,18.800 5.486 C 19.179 5.221,19.278 5.287,20.834 6.848 M26.433 6.460 C 26.626 6.665,27.983 10.960,27.983 11.364 C 27.983 11.515,27.921 11.691,27.836 11.782 C 27.678 11.952,24.644 13.110,24.359 13.109 C 24.090 13.108,23.405 12.757,23.304 12.569 C 23.233 12.435,23.242 12.014,23.345 10.627 C 23.417 9.652,23.507 8.733,23.543 8.585 C 23.594 8.381,23.863 8.064,24.634 7.300 C 25.604 6.340,25.674 6.287,25.964 6.287 C 26.183 6.287,26.316 6.336,26.433 6.460 M32.372 6.421 C 32.509 6.574,33.197 9.073,33.197 9.416 C 33.197 9.541,33.136 9.717,33.063 9.807 C 32.914 9.989,29.997 11.113,29.668 11.115 C 29.323 11.118,29.149 10.916,28.949 10.281 C 28.844 9.951,28.777 9.598,28.798 9.498 C 28.853 9.242,31.883 6.290,32.092 6.288 C 32.181 6.287,32.307 6.347,32.372 6.421 M12.530 10.063 C 12.673 10.188,12.917 10.753,13.430 12.143 C 14.094 13.943,14.127 14.063,14.022 14.251 C 13.794 14.657,13.679 14.641,11.509 13.918 C 9.997 13.414,9.474 13.208,9.393 13.083 C 9.329 12.984,9.265 12.582,9.233 12.071 C 9.152 10.766,9.088 10.833,11.002 10.206 C 12.087 9.850,12.270 9.833,12.530 10.063 M39.582 10.687 C 39.884 10.819,44.354 15.295,44.455 15.567 C 44.595 15.944,44.475 16.138,43.513 17.089 C 42.516 18.075,42.339 18.167,41.962 17.903 C 41.773 17.771,38.333 11.285,38.333 11.061 C 38.333 10.840,38.560 10.672,38.908 10.637 C 39.077 10.620,39.242 10.600,39.275 10.593 C 39.308 10.586,39.446 10.628,39.582 10.687 M17.306 11.479 C 18.390 11.931,19.338 12.361,19.412 12.435 C 19.728 12.751,19.692 12.883,18.814 14.655 C 18.356 15.580,17.902 16.411,17.805 16.502 C 17.694 16.607,17.530 16.667,17.360 16.667 C 17.125 16.667,17.013 16.589,16.488 16.058 L 15.885 15.448 15.149 13.451 C 14.744 12.353,14.413 11.359,14.413 11.244 C 14.413 10.938,14.725 10.657,15.062 10.657 C 15.235 10.657,16.056 10.958,17.306 11.479 M36.597 10.762 C 36.819 10.855,36.949 11.060,37.706 12.515 C 38.221 13.505,38.563 14.251,38.563 14.384 C 38.563 14.674,35.360 18.905,35.052 19.022 C 34.728 19.145,34.491 19.033,33.982 18.514 C 33.605 18.128,33.503 17.975,33.503 17.789 C 33.503 17.481,34.397 11.623,34.499 11.260 C 34.617 10.840,34.744 10.777,35.565 10.728 C 35.970 10.704,36.311 10.678,36.323 10.670 C 36.335 10.663,36.458 10.704,36.597 10.762 M7.829 11.568 C 7.981 11.691,8.016 11.811,8.061 12.354 C 8.091 12.707,8.117 13.364,8.121 13.815 C 8.126 14.561,8.111 14.652,7.954 14.828 C 7.859 14.934,6.798 15.591,5.597 16.288 C 3.903 17.271,3.351 17.556,3.142 17.556 C 2.903 17.557,2.792 17.476,2.172 16.848 C 1.787 16.457,1.450 16.063,1.423 15.971 C 1.326 15.646,1.612 15.278,3.127 13.771 L 4.660 12.247 5.876 11.842 C 7.215 11.396,7.557 11.348,7.829 11.568 M32.932 11.612 C 33.055 11.734,33.120 11.887,33.121 12.052 C 33.122 12.427,32.662 15.491,32.567 15.739 C 32.463 16.012,32.107 16.202,31.817 16.139 C 31.564 16.083,29.176 13.693,29.055 13.373 C 28.959 13.121,29.025 12.859,29.236 12.663 C 29.450 12.464,32.160 11.436,32.491 11.429 C 32.662 11.425,32.804 11.484,32.932 11.612 M22.509 13.655 C 23.119 13.912,23.668 14.172,23.728 14.232 C 23.869 14.373,23.939 14.636,24.154 15.821 L 24.330 16.790 24.150 16.982 C 24.051 17.087,23.888 17.173,23.787 17.173 C 23.687 17.173,22.835 16.841,21.895 16.435 C 20.513 15.839,20.161 15.656,20.059 15.484 C 19.990 15.367,19.933 15.216,19.933 15.148 C 19.933 14.896,20.778 13.335,20.951 13.265 C 21.249 13.145,21.376 13.177,22.509 13.655 M28.314 14.396 C 29.306 15.380,29.474 15.618,29.403 15.939 C 29.340 16.228,26.772 18.783,26.546 18.783 C 26.240 18.783,25.989 18.633,25.877 18.383 C 25.747 18.094,25.147 14.988,25.147 14.607 C 25.147 14.468,25.207 14.280,25.281 14.190 C 25.474 13.954,26.888 13.409,27.178 13.458 C 27.343 13.486,27.666 13.753,28.314 14.396 M11.726 15.191 C 13.535 15.794,13.723 15.906,13.723 16.375 C 13.723 16.637,13.621 16.761,12.218 18.199 C 9.999 20.471,10.085 20.393,9.820 20.393 C 9.667 20.393,9.561 20.341,9.507 20.240 C 9.456 20.146,9.406 19.117,9.377 17.574 L 9.329 15.061 9.577 14.852 C 9.714 14.737,9.883 14.643,9.953 14.643 C 10.024 14.643,10.821 14.890,11.726 15.191 M39.647 16.313 C 39.787 16.459,41.043 18.799,41.126 19.069 C 41.222 19.378,40.955 19.732,39.649 21.031 C 37.980 22.689,38.125 22.669,36.861 21.406 C 35.615 20.160,35.582 20.390,37.335 18.098 C 38.090 17.110,38.788 16.256,38.885 16.200 C 39.100 16.077,39.476 16.133,39.647 16.313 M7.840 16.719 C 8.188 16.878,8.201 16.968,8.254 19.622 C 8.310 22.396,8.311 22.387,7.864 22.387 C 7.649 22.387,7.432 22.197,5.995 20.750 C 4.417 19.161,4.370 19.105,4.370 18.804 C 4.370 18.618,4.424 18.432,4.504 18.340 C 4.701 18.114,7.290 16.637,7.489 16.637 C 7.583 16.637,7.741 16.674,7.840 16.719 M22.067 17.752 C 23.402 18.324,24.559 18.855,24.637 18.932 C 24.797 19.089,24.990 19.818,24.992 20.269 C 24.993 20.546,24.933 20.627,24.130 21.438 C 22.869 22.710,23.145 22.801,20.648 20.297 C 19.307 18.952,18.623 18.212,18.587 18.066 C 18.547 17.904,18.589 17.729,18.753 17.387 C 18.991 16.890,19.175 16.713,19.458 16.713 C 19.557 16.713,20.731 17.181,22.067 17.752 " fill="#C574D9" stroke="none" fill-rule="evenodd"></path></svg>