<svg width="189" height="24" viewBox="0 0 189 24" fill="none" xmlns="http://www.w3.org/2000/svg">
<path d="M46.5861 14.9274L31.9648 0.167282C31.8565 0.0590406 31.7088 0 31.5513 0C31.3937 0 31.246 0.0590406 31.1377 0.167282L24.4917 6.87823C24.216 7.15375 23.7828 7.15375 23.5071 6.87823L16.8611 0.167282C16.6444 -0.0492005 16.2605 -0.0492005 16.0438 0.167282L1.41271 14.9176C0.920413 15.4096 0.920413 16.2066 1.41271 16.6986L8.48213 23.8327C8.69874 24.0492 9.08273 24.0492 9.29934 23.8327L15.9454 17.1218C16.2211 16.8463 16.6543 16.8463 16.93 17.1218L23.5859 23.8229C23.6942 23.9311 23.8419 23.9902 23.9994 23.9902C24.1569 23.9902 24.3046 23.9311 24.4129 23.8229L31.0688 17.1218C31.3445 16.8463 31.7777 16.8463 32.0534 17.1218L38.6994 23.8327C38.8077 23.941 38.9554 24 39.113 24C39.2705 24 39.4182 23.941 39.5265 23.8327L46.5959 16.6986C47.0784 16.2165 47.0784 15.4194 46.5861 14.9274ZM31.9648 15.4096L30.2417 13.6285C29.8971 13.2743 30.0251 12.674 30.4977 12.4969L33.2645 11.4539C33.7568 11.2669 34.2786 11.6802 34.19 12.2116L33.678 15.567C33.5894 16.1279 32.9002 16.3542 32.4965 15.9508L31.9648 15.4096ZM12.9916 8.70849L8.94489 9.99754C8.56089 10.1156 8.26551 9.6433 8.55105 9.35793L13.0704 4.80197C13.3756 4.48709 13.9073 4.75277 13.8482 5.18573L13.4642 8.13776C13.4347 8.41329 13.2476 8.62977 12.9916 8.70849ZM13.8088 10.3518L15.0986 13.8352C15.2562 14.2583 14.8525 14.6814 14.4193 14.5338L10.7565 13.3137C10.4809 13.2251 10.2938 12.9693 10.2839 12.674L10.2544 11.3161C10.2446 11.0111 10.4415 10.7355 10.7369 10.6371L12.9522 9.92866C13.3067 9.82042 13.6808 10.0074 13.8088 10.3518ZM11.2685 14.6913L14.3306 15.7146C14.8229 15.8819 14.9608 16.492 14.6063 16.8561L11.1898 20.3001C10.9239 20.5658 10.471 20.3887 10.4612 20.0148L10.3529 15.3801C10.343 14.8881 10.8058 14.5437 11.2685 14.6913ZM16.3983 10.6667L20.2284 12.2608C20.6025 12.4182 20.7601 12.8512 20.5828 13.2153L19.037 16.305C18.8204 16.7282 18.2592 16.8167 17.9244 16.4822L17.058 15.6064C16.9891 15.5375 16.93 15.449 16.9004 15.3604L15.4925 11.5523C15.2759 10.9816 15.8371 10.4305 16.3983 10.6667ZM33.8158 10.0271L30.9999 11.08C30.6257 11.2177 30.2122 11.0209 30.0941 10.6371L29.8479 9.84994C29.7691 9.60394 29.8381 9.32841 30.0251 9.15129L32.8509 6.4059C33.0774 6.17958 33.4614 6.28782 33.55 6.60271L34.2392 9.20049C34.3278 9.5449 34.1506 9.90898 33.8158 10.0271ZM28.627 11.9754L25.6732 13.0775C25.5058 13.1365 25.3286 13.1365 25.1612 13.0677L24.6886 12.8709C24.4129 12.7528 24.2455 12.4772 24.2652 12.1722L24.5409 8.68881C24.5508 8.52153 24.6197 8.37393 24.7378 8.25584L26.52 6.45511C26.8843 6.08118 27.5144 6.23862 27.6719 6.74047L29.0307 11.1193C29.1488 11.4736 28.9618 11.8475 28.627 11.9754ZM22.2271 11.8475L21.2819 11.4539C21.0751 11.3653 20.9274 11.1882 20.8782 10.9816L19.6573 6.00246C19.5293 5.49078 20.1595 5.13653 20.5336 5.51046L23.1822 8.17712C23.32 8.32472 23.3988 8.52153 23.3791 8.71833L23.1822 11.2571C23.1428 11.7392 22.6603 12.0344 22.2271 11.8475ZM22.5717 13.2448L24.5508 14.0713C24.7674 14.1599 24.9249 14.3469 24.9643 14.583L25.3384 16.5314C25.4271 16.9643 24.984 17.3186 24.5803 17.1415L21.4001 15.7737C21.0358 15.6162 20.8782 15.1833 21.0554 14.829L21.6856 13.5793C21.853 13.2448 22.237 13.0972 22.5717 13.2448ZM26.6086 13.9631L27.8984 13.4809C28.1544 13.3825 28.4498 13.4514 28.6368 13.6482L30.2713 15.3309C30.5371 15.6064 30.5273 16.0295 30.2614 16.305L28.0067 18.5781C27.6129 18.9717 26.9433 18.7651 26.835 18.2239L26.1655 14.7601C26.1064 14.4059 26.2935 14.0812 26.6086 13.9631ZM36.169 10.7159L37.3604 10.6863C37.6262 10.6765 37.8724 10.8241 37.9905 11.0603L39.5462 14.0221C39.6742 14.2583 39.6447 14.5535 39.4871 14.77L36.4152 18.7946C36.1592 19.1292 35.6669 19.1587 35.3715 18.8635L34.7315 18.214C34.574 18.0566 34.5051 17.8401 34.5346 17.6236L35.4995 11.3161C35.5487 10.9717 35.8343 10.7257 36.169 10.7159ZM35.3912 9.05289L34.5247 5.7663C34.3869 5.25461 35.017 4.89053 35.3912 5.26445L38.4336 8.33456C38.857 8.76753 38.5714 9.4957 37.961 9.51538L36.0804 9.56458C35.7555 9.57442 35.47 9.35793 35.3912 9.05289ZM32.0436 1.8893L32.27 2.11562C32.3586 2.20418 32.4177 2.31242 32.4472 2.4305L32.9297 4.25092C32.9986 4.49693 32.9198 4.75277 32.7426 4.92989L30.1531 7.43912C29.779 7.8032 29.1587 7.64576 29.011 7.14391L28.3809 5.11685C28.3021 4.87085 28.371 4.60517 28.5482 4.4182L31.059 1.87946C31.3346 1.61378 31.7777 1.61378 32.0436 1.8893ZM16.9398 1.8893L17.501 2.45018C17.5897 2.53875 17.6487 2.64699 17.6783 2.77491L19.3029 9.43666C19.4407 9.9877 18.8893 10.46 18.3576 10.2435L15.0494 8.85609C14.7639 8.73801 14.5866 8.43297 14.626 8.12792L15.3251 2.72571C15.3448 2.57811 15.4137 2.4305 15.522 2.32226L15.9552 1.87946C16.2309 1.61378 16.674 1.61378 16.9398 1.8893ZM5.85325 12.1919L8.21629 11.4342C8.65935 11.2964 9.11227 11.6113 9.12212 12.0738L9.18119 14.3862C9.19104 14.6421 9.05319 14.8782 8.83658 15.0062L4.55358 17.4957C4.27789 17.6531 3.93328 17.6039 3.71667 17.3875L2.64346 16.305C2.37762 16.0394 2.37762 15.5966 2.64346 15.3309L5.57756 12.369C5.64648 12.2804 5.74494 12.2214 5.85325 12.1919ZM8.57074 22.2878L5.56772 19.2571C5.25264 18.9324 5.32157 18.401 5.71541 18.1747L8.21629 16.7183C8.6692 16.4526 9.25011 16.7774 9.25996 17.2989L9.36827 21.9533C9.36827 22.0812 9.31903 22.1993 9.23042 22.2878C9.04335 22.4649 8.74797 22.4649 8.57074 22.2878ZM23.5071 22.1205L19.805 18.3813C19.5982 18.1747 19.549 17.8499 19.677 17.5843L19.9232 17.0923C20.0905 16.7675 20.4844 16.6199 20.8191 16.7675L25.4763 18.7651C25.6831 18.8536 25.8406 19.0406 25.88 19.2669L26.0474 20.123C26.0867 20.3493 26.0178 20.5756 25.8603 20.7429L24.5015 22.1205C24.216 22.3961 23.7828 22.3961 23.5071 22.1205ZM38.6108 22.1205L37.1733 20.6642C36.9272 20.4182 36.9075 20.0344 37.1142 19.7589L39.684 16.3936C39.9893 15.9902 40.6096 16.0394 40.8459 16.492L42.116 18.893C42.2538 19.1587 42.2046 19.4932 41.9978 19.6999L39.6053 22.1205C39.3296 22.3961 38.8865 22.3961 38.6108 22.1205ZM42.7658 17.6531L39.428 11.3161C39.2607 11.0012 39.4871 10.6175 39.8416 10.6175L40.3733 10.6076C40.5603 10.5978 40.7474 10.6765 40.8853 10.8143L45.3652 15.3309C45.631 15.5966 45.631 16.0394 45.3652 16.305L43.8686 17.8106C43.5338 18.1451 42.9824 18.0664 42.7658 17.6531Z" fill="#C574D9"/>
<path d="M57.3913 17.9027V6.56723H60.9244L63.7802 13.4958H63.9352L66.7829 6.56723H70.316V17.9027H67.5499V10.7464H67.403L64.7838 17.0308H62.9316L60.3042 10.7464H60.1574V17.9027H57.3913Z" fill="#252B37"/>
<path d="M75.6102 17.9027V14.0064L71.5468 6.56723H74.7371L77.03 11.1941H77.185L79.4615 6.56723H82.6519L78.5966 14.0064V17.9027H75.6102Z" fill="#252B37"/>
<path d="M85.6941 14.6741C85.7321 15.0878 85.947 15.4151 86.3387 15.656C86.7358 15.9022 87.2444 16.0253 87.8645 16.0253C88.4248 16.0253 88.879 15.9074 89.2271 15.6718C89.5753 15.4361 89.7493 15.1323 89.7493 14.7605C89.7493 14.4463 89.6079 14.1949 89.325 14.0064C89.0422 13.8231 88.5635 13.666 87.889 13.5351L86.3387 13.2366C84.1628 12.8385 83.0748 11.7362 83.0748 9.92939C83.0748 8.81914 83.5019 7.93147 84.3559 7.26637C85.2045 6.59603 86.3387 6.26086 87.7584 6.26086C89.1347 6.26086 90.2607 6.58818 91.1365 7.2428C92.0014 7.89743 92.4474 8.74844 92.4746 9.79584H89.7085C89.6759 9.39783 89.4801 9.07052 89.1211 8.8139C88.7675 8.56253 88.3269 8.43684 87.7992 8.43684C87.2716 8.43684 86.85 8.54682 86.5345 8.76677C86.2135 8.99196 86.0531 9.29309 86.0531 9.67015C86.0531 10.2567 86.6406 10.6626 87.8155 10.8878L89.3332 11.1706C90.4973 11.3853 91.3486 11.7545 91.8871 12.2782C92.4311 12.8019 92.7031 13.5141 92.7031 14.4149C92.7031 15.5984 92.2625 16.5254 91.3812 17.1957C90.5 17.8713 89.287 18.2091 87.7421 18.2091C86.2516 18.2091 85.0685 17.8922 84.1927 17.2586C83.3115 16.6249 82.86 15.7634 82.8382 14.6741H85.6941Z" fill="#252B37"/>
<path d="M96.9692 17.9027V8.8846H93.5748V6.56723H103.358V8.8846H99.9556V17.9027H96.9692Z" fill="#252B37"/>
<path d="M112.814 17.9027H104.744V6.56723H112.814V8.8846H107.738V11.147H112.512V13.268H107.738V15.5853H112.814V17.9027Z" fill="#252B37"/>
<path d="M117.61 11.9011H119.381C119.93 11.9011 120.36 11.7623 120.67 11.4848C120.98 11.2072 121.135 10.8223 121.135 10.33C121.135 9.84821 120.975 9.46329 120.654 9.17526C120.333 8.88722 119.906 8.7432 119.373 8.7432H117.61V11.9011ZM117.61 17.9027H114.616V6.56723H119.797C121.173 6.56723 122.25 6.89716 123.028 7.55702C123.806 8.22212 124.195 9.1386 124.195 10.3064C124.195 11.0187 124.021 11.6576 123.673 12.2232C123.314 12.815 122.819 13.2444 122.188 13.5115L124.538 17.9027H121.176L119.16 13.9357H117.61V17.9027Z" fill="#252B37"/>
<path d="M125.826 17.9027V6.56723H128.82V17.9027H125.826Z" fill="#252B37"/>
<path d="M133.853 13.6843C133.853 14.3442 134.033 14.8574 134.392 15.224C134.756 15.5958 135.27 15.7817 135.934 15.7817C136.597 15.7817 137.109 15.5958 137.468 15.224C137.827 14.8626 138.006 14.3494 138.006 13.6843V6.56723H141.001V13.9907C141.001 15.2633 140.539 16.2845 139.614 17.0543C138.689 17.8242 137.462 18.2091 135.934 18.2091C134.405 18.2091 133.176 17.8242 132.246 17.0543C131.321 16.2845 130.859 15.2633 130.859 13.9907V6.56723H133.853V13.6843Z" fill="#252B37"/>
<path d="M143.039 17.9027V6.56723H146.573L149.428 13.4958H149.583L152.431 6.56723H155.964V17.9027H153.198V10.7464H153.051L150.432 17.0308H148.58L145.952 10.7464H145.806V17.9027H143.039Z" fill="#252B37"/>
<path d="M162.331 18.2091L157.956 6.26086H159.122L162.825 16.7269H162.93L166.633 6.26086H167.8L163.433 18.2091H162.331Z" fill="#252B37"/>
<path d="M173.316 6.26086C174.434 6.26086 175.339 6.60587 176.03 7.29588C176.716 7.98589 177.059 8.88842 177.059 10.0035C177.059 11.102 176.711 11.9935 176.014 12.678C175.317 13.3625 174.413 13.7047 173.3 13.7047H170.27V18.2091H169.16V6.26086H173.316ZM170.27 12.6945H173.049C173.951 12.6945 174.656 12.4572 175.164 11.9824C175.677 11.5022 175.933 10.8425 175.933 10.0035C175.933 9.14235 175.679 8.47166 175.172 7.99141C174.669 7.51116 173.962 7.27104 173.049 7.27104H170.27V12.6945Z" fill="#252B37"/>
<path d="M178.719 18.2091V6.26086H179.813L186.627 16.1805H186.732V6.26086H187.826V18.2091H186.757L179.918 8.28122H179.813V18.2091H178.719Z" fill="#252B37"/>
</svg>
